<svg width="25" height="25" viewBox="0 0 25 25" fill="none" xmlns="http://www.w3.org/2000/svg">
<path fill-rule="evenodd" clip-rule="evenodd" d="M15.0795 1.06986C15.1207 1.20764 15.1372 1.37236 15.1702 1.70181C15.2324 2.32426 15.2635 2.63548 15.342 2.83198C15.6548 3.61525 16.5517 3.98674 17.3267 3.65407C17.5211 3.57061 17.7632 3.37255 18.2473 2.97643C18.5036 2.76679 18.6317 2.66196 18.7583 2.5937C19.2496 2.32873 19.8475 2.35855 20.3101 2.6711C20.4292 2.75161 20.5463 2.86866 20.7803 3.10274L20.7804 3.10277L21.8972 4.21961C22.1313 4.45371 22.2484 4.57076 22.3289 4.68992C22.6414 5.15248 22.6712 5.75034 22.4063 6.24171C22.338 6.36828 22.2332 6.49639 22.0236 6.7526L22.0235 6.75263L22.0235 6.75266C21.6274 7.23678 21.4294 7.47884 21.3459 7.67327C21.0132 8.4483 21.3847 9.34517 22.168 9.65796C22.3645 9.73643 22.6757 9.76756 23.2982 9.8298L23.2982 9.8298C23.6276 9.86275 23.7924 9.87922 23.9301 9.92046C24.4649 10.0805 24.8666 10.5244 24.9727 11.0724C25 11.2136 25 11.3792 25 11.7103V13.2898C25 13.6208 25 13.7863 24.9727 13.9274C24.8666 14.4756 24.4649 14.9195 23.93 15.0795C23.7923 15.1208 23.6276 15.1372 23.2983 15.1702L23.2983 15.1702C22.6761 15.2324 22.365 15.2635 22.1686 15.3419C21.3852 15.6546 21.0136 16.5517 21.3464 17.3269C21.4299 17.5212 21.6278 17.7631 22.0237 18.247L22.0237 18.247L22.0237 18.247C22.2333 18.5031 22.338 18.6311 22.4063 18.7576C22.6713 19.2491 22.6415 19.8471 22.3288 20.3097C22.2484 20.4288 22.1314 20.5458 21.8974 20.7797L20.7804 21.8967L20.7804 21.8967C20.5463 22.1308 20.4293 22.2479 20.3101 22.3284C19.8475 22.6409 19.2497 22.6707 18.7583 22.4058C18.6317 22.3375 18.5036 22.2327 18.2474 22.023C17.7633 21.6269 17.5212 21.4289 17.3267 21.3454C16.5517 21.0127 15.6549 21.3842 15.3421 22.1675C15.2636 22.364 15.2325 22.6753 15.1702 23.2979C15.1372 23.6276 15.1207 23.7924 15.0795 23.9303C14.9194 24.465 14.4756 24.8665 13.9277 24.9726C13.7864 25 13.6208 25 13.2895 25H11.7103C11.3792 25 11.2136 25 11.0724 24.9727C10.5244 24.8666 10.0805 24.4649 9.92046 23.9301C9.87922 23.7924 9.86275 23.6276 9.8298 23.2982L9.8298 23.2982C9.76755 22.6757 9.73643 22.3645 9.65796 22.168C9.34516 21.3847 8.44831 21.0133 7.67329 21.3459C7.47885 21.4294 7.23676 21.6275 6.75259 22.0236C6.49633 22.2333 6.3682 22.3381 6.24161 22.4064C5.75026 22.6713 5.15242 22.6415 4.68987 22.329C4.5707 22.2484 4.45364 22.1314 4.21951 21.8973L3.10272 20.7805L3.1027 20.7804C2.86859 20.5463 2.75153 20.4293 2.67101 20.3101C2.35848 19.8476 2.32866 19.2497 2.59362 18.7584C2.66188 18.6318 2.76672 18.5036 2.97639 18.2474C3.37253 17.7632 3.5706 17.5211 3.65406 17.3267C3.98672 16.5517 3.61524 15.6548 2.83198 15.342C2.63547 15.2635 2.32425 15.2324 1.7018 15.1702C1.37236 15.1372 1.20764 15.1207 1.06987 15.0795C0.535061 14.9194 0.133398 14.4756 0.0273262 13.9275C0 13.7863 0 13.6208 0 13.2897V11.7104C0 11.3792 0 11.2136 0.0273477 11.0723C0.133446 10.5243 0.535043 10.0806 1.06976 9.92049C1.20759 9.87922 1.37237 9.86275 1.70194 9.82979C2.32463 9.76752 2.63598 9.73638 2.83256 9.65786C3.61566 9.34502 3.98708 8.44834 3.65455 7.6734C3.57108 7.47887 3.37291 7.23667 2.97659 6.75228L2.97659 6.75227L2.97658 6.75226C2.76679 6.49585 2.66189 6.36764 2.5936 6.24097C2.32875 5.74969 2.35856 5.15198 2.67098 4.6895C2.75153 4.57025 2.86866 4.45313 3.10291 4.21888L3.10291 4.21888L4.21957 3.10221C4.45369 2.86809 4.57075 2.75103 4.68992 2.67051C5.15247 2.35798 5.75032 2.32816 6.24167 2.59312C6.36826 2.66138 6.49642 2.76624 6.75274 2.97595C7.23679 3.372 7.47882 3.57002 7.67315 3.65347C8.44828 3.9863 9.34534 3.61472 9.65809 2.83128C9.7365 2.63486 9.7676 2.32378 9.82982 1.70163L9.82982 1.7016C9.86275 1.37234 9.87921 1.20771 9.92042 1.07C10.0805 0.535083 10.5244 0.133341 11.0726 0.0273003C11.2137 0 11.3792 0 11.7101 0H13.2897C13.6208 0 13.7863 0 13.9275 0.0273268C14.4756 0.133399 14.9194 0.535061 15.0795 1.06986ZM12.5 17.5C15.2614 17.5 17.5 15.2614 17.5 12.5C17.5 9.73857 15.2614 7.49999 12.5 7.49999C9.73858 7.49999 7.5 9.73857 7.5 12.5C7.5 15.2614 9.73858 17.5 12.5 17.5Z" fill="white"/>
</svg>
