<?xml version="1.0" encoding="utf-8"?>
<!-- Generator: Adobe Illustrator 28.0.0, SVG Export Plug-In . SVG Version: 6.00 Build 0)  -->
<svg version="1.1" id="Layer_1" xmlns="http://www.w3.org/2000/svg" xmlns:xlink="http://www.w3.org/1999/xlink" x="0px" y="0px"
	 viewBox="0 0 410 410" style="enable-background:new 0 0 410 410;" xml:space="preserve">
<style type="text/css">
	.st0{fill:#FDC212;}
	.st1{fill:#FFFFFF;}
</style>
<g>
	<path class="st0" d="M53.37,118.45C101.72,34.71,208.79,6.02,292.53,54.37s112.43,155.42,64.08,239.16
		c-27.98,48.46-75.62,78.48-127.03,85.81l-1.8,28.27c61.74-7.03,119.47-42.22,152.92-100.17c56.03-97.04,22.78-221.13-74.26-277.15
		S85.31,7.5,29.28,104.54C-4.17,162.49-5.79,230.07,19,287.06l23.58-15.7C23.22,223.18,25.4,166.91,53.37,118.45z"/>
	<path class="st1" d="M314.99,142.48c35.07,60.75,14.26,138.43-46.49,173.51s-138.43,14.26-173.51-46.49
		c-18.49-32.02-21.44-68.74-11.21-101.45l-24.14-16.07c-15.5,41.79-12.97,89.92,11.06,131.54c42.82,74.16,137.65,99.57,211.81,56.75
		s99.57-137.65,56.75-211.81c-24.03-41.62-64.44-67.88-108.39-75.35l1.85,28.94C266.17,89.54,296.5,110.46,314.99,142.48z"/>
	<path class="st0" d="M204.99,287.95c-45.27,0-81.96-36.7-81.96-81.96s36.7-81.96,81.96-81.96c18.99,0,36.46,6.48,50.36,17.32
		l26.9-13.32c-19.83-19.65-47.12-31.8-77.25-31.8c-60.62,0-109.76,49.14-109.76,109.76c0,60.62,49.14,109.76,109.76,109.76
		c30.13,0,57.42-12.14,77.25-31.8l-26.9-13.32C241.45,281.47,223.98,287.95,204.99,287.95z"/>
</g>
<circle class="st1" cx="205" cy="205.33" r="67.57"/>
</svg>
